<svg width="256" height="256" viewBox="0 0 256 256" fill="none" xmlns="http://www.w3.org/2000/svg" role="img" aria-label="ResTito">
  <defs>
    <linearGradient id="tile" x1="34" y1="20" x2="226" y2="240" gradientUnits="userSpaceOnUse">
      <stop offset="0" stop-color="#8b5cf6"/>
      <stop offset=".55" stop-color="#7c3aed"/>
      <stop offset="1" stop-color="#5b21b6"/>
    </linearGradient>
    <radialGradient id="glow" cx="0" cy="0" r="1" gradientUnits="userSpaceOnUse" gradientTransform="translate(74 56) rotate(48) scale(176)">
      <stop offset="0" stop-color="#ffffff" stop-opacity=".30"/>
      <stop offset=".5" stop-color="#ffffff" stop-opacity="0"/>
    </radialGradient>
    <linearGradient id="util" x1="96" y1="60" x2="160" y2="200" gradientUnits="userSpaceOnUse">
      <stop offset="0" stop-color="#ffffff"/>
      <stop offset="1" stop-color="#ece5fa"/>
    </linearGradient>
    <linearGradient id="amber" x1="64" y1="70" x2="192" y2="196" gradientUnits="userSpaceOnUse">
      <stop offset="0" stop-color="#fcd34d"/>
      <stop offset="1" stop-color="#f59e0b"/>
    </linearGradient>
  </defs>

  <!-- tile -->
  <rect x="8" y="8" width="240" height="240" rx="58" fill="url(#tile)"/>
  <rect x="8" y="8" width="240" height="240" rx="58" fill="url(#glow)"/>
  <rect x="8.5" y="8.5" width="239" height="239" rx="57.5" stroke="#ffffff" stroke-opacity=".16"/>

  <!-- medallion ring (plate) -->
  <circle cx="128" cy="130" r="72" stroke="url(#amber)" stroke-width="5" stroke-opacity=".9"/>
  <circle cx="128" cy="130" r="72" stroke="#ffffff" stroke-width="5" stroke-opacity=".06"/>

  <!-- FORK (left) -->
  <g fill="url(#util)">
    <rect x="92"  y="66" width="6" height="42" rx="3"/>
    <rect x="101" y="66" width="6" height="42" rx="3"/>
    <rect x="110" y="66" width="6" height="42" rx="3"/>
    <rect x="119" y="66" width="6" height="42" rx="3"/>
    <path d="M92 104h33v6a14 14 0 0 1-14 14h-5a14 14 0 0 1-14-14z"/>
    <rect x="102.5" y="120" width="12" height="76" rx="6"/>
  </g>

  <!-- KNIFE (right) -->
  <g fill="url(#util)">
    <path d="M150 64c6 26 4 60 4 84l-16 0c0-24-2-58 4-84 1.6-7 6.4-7 8 0z"/>
    <rect x="143.5" y="146" width="13" height="50" rx="6.5"/>
  </g>
  <!-- cutting edge accent -->
  <path d="M142 70c-4 24-4 54-4 78" stroke="url(#amber)" stroke-width="3" stroke-linecap="round" fill="none" opacity=".85"/>
</svg>
